<svg width="36" height="32" viewBox="0 0 36 32" fill="none" xmlns="http://www.w3.org/2000/svg">
<g id="commentary">
<g id="icon">
<path d="M27 5.33333H9V8H27V5.33333Z" fill="#43E8E1"/>
<path d="M27 10.6667H9V13.3333H27V10.6667Z" fill="#43E8E1"/>
<path d="M9 16H21V18.6667H9V16Z" fill="#43E8E1"/>
<path fill-rule="evenodd" clip-rule="evenodd" d="M6 0C2.68629 0 0 2.38781 0 5.33333V18.6667C0 21.6122 2.68629 24 6 24V32L16.3299 24H30C33.3137 24 36 21.6122 36 18.6667V5.33333C36 2.38781 33.3137 0 30 0H6ZM3 5.33333C3 3.86057 4.34315 2.66667 6 2.66667H30C31.6569 2.66667 33 3.86057 33 5.33333V18.6667C33 20.1394 31.6569 21.3333 30 21.3333H15.1701L9 25.9719V21.3333H6C4.34315 21.3333 3 20.1394 3 18.6667V5.33333Z" fill="#43E8E1"/>
</g>
</g>
</svg>
