<svg width="45" height="57" viewBox="0 0 45 57" fill="none" xmlns="http://www.w3.org/2000/svg">
<g id="Group 367">
<path id="Vector 1" d="M44.8265 9.33945L21.8265 24.2895C11.8262 20.4134 2.82701 15.43 7.82654 8.2318C12.8263 2.69512 22.8265 11.0008 23.8265 9.89341C23.8265 9.89341 25.327 6.57104 29.3265 0.48016C36.327 -0.0736849 41.9932 6.01722 44.8265 9.33945Z" fill="#42B4EE"/>
<path id="Vector 2" d="M0.402995 23.1465C7.903 25.7304 22.103 32.8917 18.903 40.8651C11.9033 49.1707 -2.59653 41.9725 0.402995 23.1465Z" fill="#42B4EE"/>
<path id="Vector 3" d="M29.4023 39.2041C27.0023 47.6204 16.069 50.8319 10.9023 51.3856C23.7023 62.4599 37.9023 53.7851 43.4023 48.0634C39.7357 41.6035 37.4023 44.7412 29.4023 39.2041Z" fill="#42B4EE"/>
</g>
</svg>
