<svg width="27" height="31" viewBox="0 0 27 31" fill="none" xmlns="http://www.w3.org/2000/svg">
<path id="Shape" fill-rule="evenodd" clip-rule="evenodd" d="M6.66667 11.1729C6.66667 10.3791 6.68039 8.29751 7.55895 6.44647C7.98574 5.54728 8.59359 4.75484 9.46114 4.18248C10.3186 3.61676 11.5408 3.19227 13.3333 3.19227C15.1259 3.19227 16.348 3.61676 17.2055 4.18248C18.0731 4.75484 18.6809 5.54728 19.1077 6.44647C19.9863 8.29751 20 10.3791 20 11.1729C20 11.1729 20 11.1729 20 11.1729H6.66667C6.66667 11.1729 6.66667 11.1729 6.66667 11.1729ZM3.33334 11.1729C3.33334 11.1729 3.33334 11.1729 3.33334 11.1729L3.33334 11.1461C3.33319 10.3119 3.3327 7.63628 4.5244 5.1255C5.13928 3.83001 6.09393 2.52752 7.57012 1.55363C9.05637 0.573095 10.9592 0 13.3333 0C15.7075 0 17.6103 0.573095 19.0966 1.55363C20.5728 2.52752 21.5274 3.83001 22.1423 5.1255C23.334 7.63627 23.3335 10.3119 23.3333 11.1461L23.3333 11.1729C23.3333 11.1729 23.3333 11.1729 23.3333 11.1729H23.6667C25.3235 11.1729 26.6667 12.5161 26.6667 14.1729V27.3266C26.6667 28.9834 25.3235 30.3266 23.6667 30.3266H3C1.34314 30.3266 0 28.9834 0 27.3266V14.1729C0 12.5161 1.34315 11.1729 3 11.1729H3.33334Z" fill="#4C9BE8"/>
</svg>
